<mxfile host="app.diagrams.net" modified="2023-04-29T12:00:38.988Z" agent="Mozilla/5.0 (Windows NT 10.0; Win64; x64) AppleWebKit/537.36 (KHTML, like Gecko) Chrome/112.0.0.0 Safari/537.36" etag="ngkHYU7beUUNNW1Ono-E" version="21.2.3" type="device">
  <diagram id="C5RBs43oDa-KdzZeNtuy" name="Page-1">
    <mxGraphModel dx="744" dy="899" grid="1" gridSize="10" guides="1" tooltips="1" connect="1" arrows="1" fold="1" page="1" pageScale="1" pageWidth="827" pageHeight="1169" math="0" shadow="0">
      <root>
        <mxCell id="WIyWlLk6GJQsqaUBKTNV-0" />
        <mxCell id="WIyWlLk6GJQsqaUBKTNV-1" parent="WIyWlLk6GJQsqaUBKTNV-0" />
        <mxCell id="h-qLBfHDH4C6o6zkbq4c-2" value="" style="edgeStyle=none;curved=1;rounded=0;orthogonalLoop=1;jettySize=auto;html=1;fontSize=12;startSize=8;endSize=8;entryX=0.5;entryY=0;entryDx=0;entryDy=0;" edge="1" parent="WIyWlLk6GJQsqaUBKTNV-1" source="h-qLBfHDH4C6o6zkbq4c-0" target="h-qLBfHDH4C6o6zkbq4c-3">
          <mxGeometry relative="1" as="geometry">
            <mxPoint x="315" y="250" as="targetPoint" />
          </mxGeometry>
        </mxCell>
        <mxCell id="h-qLBfHDH4C6o6zkbq4c-0" value="battleEnd" style="ellipse;whiteSpace=wrap;html=1;fontSize=16;" vertex="1" parent="WIyWlLk6GJQsqaUBKTNV-1">
          <mxGeometry x="260" y="150" width="110" height="60" as="geometry" />
        </mxCell>
        <mxCell id="h-qLBfHDH4C6o6zkbq4c-5" value="Ja" style="edgeStyle=none;curved=1;rounded=0;orthogonalLoop=1;jettySize=auto;html=1;fontSize=12;startSize=8;endSize=8;" edge="1" parent="WIyWlLk6GJQsqaUBKTNV-1" source="h-qLBfHDH4C6o6zkbq4c-3" target="h-qLBfHDH4C6o6zkbq4c-4">
          <mxGeometry relative="1" as="geometry" />
        </mxCell>
        <mxCell id="h-qLBfHDH4C6o6zkbq4c-16" value="nein" style="edgeStyle=none;curved=1;rounded=0;orthogonalLoop=1;jettySize=auto;html=1;fontSize=12;startSize=8;endSize=8;" edge="1" parent="WIyWlLk6GJQsqaUBKTNV-1" source="h-qLBfHDH4C6o6zkbq4c-3" target="h-qLBfHDH4C6o6zkbq4c-15">
          <mxGeometry relative="1" as="geometry">
            <Array as="points">
              <mxPoint x="220" y="290" />
            </Array>
          </mxGeometry>
        </mxCell>
        <mxCell id="h-qLBfHDH4C6o6zkbq4c-3" value="winID &lt;br&gt;==1" style="rhombus;whiteSpace=wrap;html=1;fontSize=16;" vertex="1" parent="WIyWlLk6GJQsqaUBKTNV-1">
          <mxGeometry x="275" y="250" width="80" height="80" as="geometry" />
        </mxCell>
        <mxCell id="h-qLBfHDH4C6o6zkbq4c-7" value="Ja" style="edgeStyle=none;curved=1;rounded=0;orthogonalLoop=1;jettySize=auto;html=1;fontSize=12;startSize=8;endSize=8;" edge="1" parent="WIyWlLk6GJQsqaUBKTNV-1" source="h-qLBfHDH4C6o6zkbq4c-4" target="h-qLBfHDH4C6o6zkbq4c-6">
          <mxGeometry relative="1" as="geometry" />
        </mxCell>
        <mxCell id="h-qLBfHDH4C6o6zkbq4c-9" value="" style="edgeStyle=none;curved=1;rounded=0;orthogonalLoop=1;jettySize=auto;html=1;fontSize=12;startSize=8;endSize=8;" edge="1" parent="WIyWlLk6GJQsqaUBKTNV-1" source="h-qLBfHDH4C6o6zkbq4c-4" target="h-qLBfHDH4C6o6zkbq4c-8">
          <mxGeometry relative="1" as="geometry" />
        </mxCell>
        <mxCell id="h-qLBfHDH4C6o6zkbq4c-10" value="Nein" style="edgeLabel;html=1;align=center;verticalAlign=middle;resizable=0;points=[];fontSize=16;" vertex="1" connectable="0" parent="h-qLBfHDH4C6o6zkbq4c-9">
          <mxGeometry x="-0.3354" y="4" relative="1" as="geometry">
            <mxPoint as="offset" />
          </mxGeometry>
        </mxCell>
        <mxCell id="h-qLBfHDH4C6o6zkbq4c-4" value="&lt;br&gt;gameMode&lt;br&gt;==1" style="rhombus;whiteSpace=wrap;html=1;fontSize=16;" vertex="1" parent="WIyWlLk6GJQsqaUBKTNV-1">
          <mxGeometry x="450" y="250" width="80" height="80" as="geometry" />
        </mxCell>
        <mxCell id="h-qLBfHDH4C6o6zkbq4c-12" value="" style="edgeStyle=none;curved=1;rounded=0;orthogonalLoop=1;jettySize=auto;html=1;fontSize=12;startSize=8;endSize=8;" edge="1" parent="WIyWlLk6GJQsqaUBKTNV-1" source="h-qLBfHDH4C6o6zkbq4c-6" target="h-qLBfHDH4C6o6zkbq4c-11">
          <mxGeometry relative="1" as="geometry" />
        </mxCell>
        <mxCell id="h-qLBfHDH4C6o6zkbq4c-6" value="rufe loseoutput auf" style="rounded=1;whiteSpace=wrap;html=1;fontSize=16;" vertex="1" parent="WIyWlLk6GJQsqaUBKTNV-1">
          <mxGeometry x="610" y="270" width="120" height="50" as="geometry" />
        </mxCell>
        <mxCell id="h-qLBfHDH4C6o6zkbq4c-14" value="" style="edgeStyle=none;curved=1;rounded=0;orthogonalLoop=1;jettySize=auto;html=1;fontSize=12;startSize=8;endSize=8;" edge="1" parent="WIyWlLk6GJQsqaUBKTNV-1" source="h-qLBfHDH4C6o6zkbq4c-8" target="h-qLBfHDH4C6o6zkbq4c-13">
          <mxGeometry relative="1" as="geometry" />
        </mxCell>
        <mxCell id="h-qLBfHDH4C6o6zkbq4c-8" value="rufe winoutput auf" style="rounded=1;whiteSpace=wrap;html=1;fontSize=16;" vertex="1" parent="WIyWlLk6GJQsqaUBKTNV-1">
          <mxGeometry x="430" y="400" width="120" height="40" as="geometry" />
        </mxCell>
        <mxCell id="h-qLBfHDH4C6o6zkbq4c-11" value="gebe aus dass der Computer gewonnen hat" style="rounded=1;whiteSpace=wrap;html=1;fontSize=16;" vertex="1" parent="WIyWlLk6GJQsqaUBKTNV-1">
          <mxGeometry x="610" y="380" width="120" height="50" as="geometry" />
        </mxCell>
        <mxCell id="h-qLBfHDH4C6o6zkbq4c-13" value="gebe aus das Spieler 1 gewonnen hat" style="rounded=1;whiteSpace=wrap;html=1;fontSize=16;" vertex="1" parent="WIyWlLk6GJQsqaUBKTNV-1">
          <mxGeometry x="430" y="470" width="120" height="60" as="geometry" />
        </mxCell>
        <mxCell id="h-qLBfHDH4C6o6zkbq4c-18" value="Ja" style="edgeStyle=none;curved=1;rounded=0;orthogonalLoop=1;jettySize=auto;html=1;fontSize=12;startSize=8;endSize=8;" edge="1" parent="WIyWlLk6GJQsqaUBKTNV-1" source="h-qLBfHDH4C6o6zkbq4c-15" target="h-qLBfHDH4C6o6zkbq4c-17">
          <mxGeometry relative="1" as="geometry" />
        </mxCell>
        <mxCell id="h-qLBfHDH4C6o6zkbq4c-20" value="nein" style="edgeStyle=none;curved=1;rounded=0;orthogonalLoop=1;jettySize=auto;html=1;fontSize=12;startSize=8;endSize=8;" edge="1" parent="WIyWlLk6GJQsqaUBKTNV-1" source="h-qLBfHDH4C6o6zkbq4c-15" target="h-qLBfHDH4C6o6zkbq4c-19">
          <mxGeometry relative="1" as="geometry" />
        </mxCell>
        <mxCell id="h-qLBfHDH4C6o6zkbq4c-15" value="&lt;br&gt;gameMode&lt;br&gt;==1" style="rhombus;whiteSpace=wrap;html=1;fontSize=16;" vertex="1" parent="WIyWlLk6GJQsqaUBKTNV-1">
          <mxGeometry x="120" y="250" width="80" height="80" as="geometry" />
        </mxCell>
        <mxCell id="h-qLBfHDH4C6o6zkbq4c-22" value="" style="edgeStyle=none;curved=1;rounded=0;orthogonalLoop=1;jettySize=auto;html=1;fontSize=12;startSize=8;endSize=8;" edge="1" parent="WIyWlLk6GJQsqaUBKTNV-1" source="h-qLBfHDH4C6o6zkbq4c-17" target="h-qLBfHDH4C6o6zkbq4c-21">
          <mxGeometry relative="1" as="geometry" />
        </mxCell>
        <mxCell id="h-qLBfHDH4C6o6zkbq4c-17" value="rufe winoutput auf" style="rounded=1;whiteSpace=wrap;html=1;fontSize=16;" vertex="1" parent="WIyWlLk6GJQsqaUBKTNV-1">
          <mxGeometry x="190" y="360" width="120" height="40" as="geometry" />
        </mxCell>
        <mxCell id="h-qLBfHDH4C6o6zkbq4c-24" value="" style="edgeStyle=none;curved=1;rounded=0;orthogonalLoop=1;jettySize=auto;html=1;fontSize=12;startSize=8;endSize=8;" edge="1" parent="WIyWlLk6GJQsqaUBKTNV-1" source="h-qLBfHDH4C6o6zkbq4c-19" target="h-qLBfHDH4C6o6zkbq4c-23">
          <mxGeometry relative="1" as="geometry" />
        </mxCell>
        <mxCell id="h-qLBfHDH4C6o6zkbq4c-19" value="rufe winoutput auf" style="rounded=1;whiteSpace=wrap;html=1;fontSize=16;" vertex="1" parent="WIyWlLk6GJQsqaUBKTNV-1">
          <mxGeometry x="10" y="360" width="120" height="40" as="geometry" />
        </mxCell>
        <mxCell id="h-qLBfHDH4C6o6zkbq4c-21" value="gebe aus, dass der Spieler gewonnen hat" style="rounded=1;whiteSpace=wrap;html=1;fontSize=16;" vertex="1" parent="WIyWlLk6GJQsqaUBKTNV-1">
          <mxGeometry x="190" y="450" width="120" height="60" as="geometry" />
        </mxCell>
        <mxCell id="h-qLBfHDH4C6o6zkbq4c-23" value="gebe aus, dass Spieler 2 gewonnen hat" style="whiteSpace=wrap;html=1;fontSize=16;rounded=1;" vertex="1" parent="WIyWlLk6GJQsqaUBKTNV-1">
          <mxGeometry x="20" y="450" width="120" height="60" as="geometry" />
        </mxCell>
        <mxCell id="h-qLBfHDH4C6o6zkbq4c-27" value="" style="edgeStyle=none;curved=1;rounded=0;orthogonalLoop=1;jettySize=auto;html=1;fontSize=12;startSize=8;endSize=8;" edge="1" parent="WIyWlLk6GJQsqaUBKTNV-1" source="h-qLBfHDH4C6o6zkbq4c-25" target="h-qLBfHDH4C6o6zkbq4c-26">
          <mxGeometry relative="1" as="geometry" />
        </mxCell>
        <mxCell id="h-qLBfHDH4C6o6zkbq4c-25" value="winoutput" style="ellipse;whiteSpace=wrap;html=1;fontSize=16;" vertex="1" parent="WIyWlLk6GJQsqaUBKTNV-1">
          <mxGeometry x="50" y="590" width="120" height="80" as="geometry" />
        </mxCell>
        <mxCell id="h-qLBfHDH4C6o6zkbq4c-26" value="gebe groß &quot;Sieg&quot; aus" style="rounded=1;whiteSpace=wrap;html=1;fontSize=16;" vertex="1" parent="WIyWlLk6GJQsqaUBKTNV-1">
          <mxGeometry x="50" y="710" width="120" height="60" as="geometry" />
        </mxCell>
        <mxCell id="h-qLBfHDH4C6o6zkbq4c-28" value="" style="edgeStyle=none;curved=1;rounded=0;orthogonalLoop=1;jettySize=auto;html=1;fontSize=12;startSize=8;endSize=8;" edge="1" parent="WIyWlLk6GJQsqaUBKTNV-1" source="h-qLBfHDH4C6o6zkbq4c-29" target="h-qLBfHDH4C6o6zkbq4c-30">
          <mxGeometry relative="1" as="geometry" />
        </mxCell>
        <mxCell id="h-qLBfHDH4C6o6zkbq4c-29" value="loseoutpot" style="ellipse;whiteSpace=wrap;html=1;fontSize=16;" vertex="1" parent="WIyWlLk6GJQsqaUBKTNV-1">
          <mxGeometry x="220" y="584" width="120" height="80" as="geometry" />
        </mxCell>
        <mxCell id="h-qLBfHDH4C6o6zkbq4c-30" value="gebe groß &quot;Niederlage&quot; aus" style="rounded=1;whiteSpace=wrap;html=1;fontSize=16;" vertex="1" parent="WIyWlLk6GJQsqaUBKTNV-1">
          <mxGeometry x="220" y="704" width="120" height="60" as="geometry" />
        </mxCell>
        <mxCell id="h-qLBfHDH4C6o6zkbq4c-31" value="" style="edgeStyle=none;curved=1;rounded=0;orthogonalLoop=1;jettySize=auto;html=1;fontSize=12;startSize=8;endSize=8;" edge="1" parent="WIyWlLk6GJQsqaUBKTNV-1" source="h-qLBfHDH4C6o6zkbq4c-32" target="h-qLBfHDH4C6o6zkbq4c-33">
          <mxGeometry relative="1" as="geometry" />
        </mxCell>
        <mxCell id="h-qLBfHDH4C6o6zkbq4c-32" value="welcomeUser" style="ellipse;whiteSpace=wrap;html=1;fontSize=16;" vertex="1" parent="WIyWlLk6GJQsqaUBKTNV-1">
          <mxGeometry x="380" y="584" width="120" height="80" as="geometry" />
        </mxCell>
        <mxCell id="h-qLBfHDH4C6o6zkbq4c-33" value="gebe groß &quot;Fleet Battle&quot; aus" style="rounded=1;whiteSpace=wrap;html=1;fontSize=16;" vertex="1" parent="WIyWlLk6GJQsqaUBKTNV-1">
          <mxGeometry x="380" y="704" width="120" height="60" as="geometry" />
        </mxCell>
      </root>
    </mxGraphModel>
  </diagram>
</mxfile>
